<svg width="18" height="17" viewBox="0 0 18 17" fill="none" xmlns="http://www.w3.org/2000/svg">
<path d="M3.02706 16.776H8.74898V10.8126H6.6932V8.8467H8.74898V6.38928C8.74898 5.03425 9.90174 3.93187 11.3187 3.93187H13.8884V5.8978H11.8327C11.2658 5.8978 10.8048 6.33873 10.8048 6.88076V8.8467H13.7957L13.4531 10.8126H10.8048V16.776H15.4303C16.8472 16.776 18 15.6736 18 14.3185V2.45742C18 1.10238 16.8472 0 15.4303 0H3.02706C1.6101 0 0.457336 1.10238 0.457336 2.45742V14.3185C0.457336 15.6736 1.6101 16.776 3.02706 16.776ZM1.48523 2.45742C1.48523 1.64442 2.17691 0.982966 3.02706 0.982966H15.4303C16.2804 0.982966 16.9721 1.64442 16.9721 2.45742V14.3185C16.9721 15.1315 16.2804 15.793 15.4303 15.793H11.8327V11.7956H14.3238L15.0091 7.86373H11.8327V6.88076H14.9163V2.9489H11.3187C9.33493 2.9489 7.72109 4.49221 7.72109 6.38928V7.86373H5.66531V11.7956H7.72109V15.793H3.02706C2.17691 15.793 1.48523 15.1315 1.48523 14.3185V2.45742Z" fill="white"/>
</svg>
