<svg width="19" height="17" viewBox="0 0 19 17" fill="none" xmlns="http://www.w3.org/2000/svg">
<path d="M3.43319 16.776H15.8364C17.2534 16.776 18.4061 15.6736 18.4061 14.3185V2.45742C18.4061 1.10238 17.2534 0 15.8364 0H3.43319C2.01623 0 0.863464 1.10238 0.863464 2.45742V14.3185C0.863464 15.6736 2.01623 16.776 3.43319 16.776ZM1.89135 2.45742C1.89135 1.64442 2.58304 0.982966 3.43319 0.982966H15.8364C16.6865 0.982966 17.3782 1.64442 17.3782 2.45742V14.3185C17.3782 15.1315 16.6865 15.793 15.8364 15.793H3.43319C2.58304 15.793 1.89135 15.1315 1.89135 14.3185V2.45742Z" fill="white"/>
<path d="M9.63478 12.8113C12.1852 12.8113 14.2603 10.827 14.2603 8.38798C14.2603 5.94899 12.1852 3.96463 9.63478 3.96463C7.08433 3.96463 5.00928 5.94899 5.00928 8.38798C5.00928 10.827 7.08433 12.8113 9.63478 12.8113ZM9.63478 4.9476C11.6185 4.9476 13.2324 6.49091 13.2324 8.38798C13.2324 10.2851 11.6185 11.8284 9.63478 11.8284C7.65101 11.8284 6.03717 10.2851 6.03717 8.38798C6.03717 6.49091 7.65101 4.9476 9.63478 4.9476Z" fill="white"/>
<path d="M14.4822 4.70905C15.3222 4.70905 16.0056 4.05548 16.0056 3.25218C16.0056 2.44888 15.3222 1.79532 14.4822 1.79532C13.6422 1.79532 12.9587 2.44888 12.9587 3.25218C12.9587 4.05548 13.6422 4.70905 14.4822 4.70905ZM14.4822 2.76656C14.7621 2.76656 14.99 2.98446 14.99 3.25218C14.99 3.51991 14.7621 3.7378 14.4822 3.7378C14.2022 3.7378 13.9744 3.51991 13.9744 3.25218C13.9744 2.98446 14.2022 2.76656 14.4822 2.76656Z" fill="white"/>
</svg>
