<svg width="18" height="14" viewBox="0 0 18 14" fill="none" xmlns="http://www.w3.org/2000/svg">
<path d="M17.8122 1.83371C16.7087 1.88234 16.7328 1.87837 16.608 1.88836L17.2616 0.103532C17.2616 0.103532 15.2216 0.821174 14.7044 0.949548C13.3462 -0.217852 11.3274 -0.269432 9.88405 0.578888C8.70211 1.27375 8.06771 2.467 8.27931 3.86171C5.979 3.55646 4.04087 2.51372 2.51068 0.755899L2.02671 0.200037L1.66508 0.835125C1.20802 1.63762 1.05624 2.55519 1.23759 3.41874C1.31201 3.77302 1.43849 4.11091 1.61368 4.4273L1.19851 4.27346L1.14926 4.93683C1.09934 5.6107 1.33396 6.39733 1.77697 7.04086C1.90171 7.2221 2.06232 7.42112 2.26589 7.61746L2.05134 7.58598L2.31313 8.34611C2.65723 9.34482 3.37194 10.1175 4.29945 10.547C3.37314 10.9229 2.62484 11.1628 1.39486 11.5497L0.269531 11.9035L1.30893 12.4469C1.70523 12.6541 3.1056 13.3462 4.48923 13.5538C7.56487 14.0151 11.0277 13.6394 13.3589 11.6316C15.3225 9.94049 15.9668 7.53491 15.833 5.03154C15.8128 4.65257 15.9213 4.29086 16.1387 4.01325C16.574 3.45739 17.8095 1.83742 17.8122 1.83371ZM15.3167 3.4245C14.9558 3.88539 14.775 4.47402 14.8073 5.08172C14.9424 7.60684 14.2239 9.56509 12.6718 10.9018C10.8587 12.4634 7.93414 13.0764 4.64837 12.5835C4.05332 12.4943 3.43832 12.2945 2.92933 12.0949C3.96057 11.7556 4.75691 11.4532 6.04298 10.8711L7.83831 10.0585L5.85614 9.93716C4.90668 9.87905 4.11609 9.43902 3.63012 8.72458C3.88816 8.71024 4.13697 8.67031 4.3847 8.60427L6.27519 8.10075L4.36891 7.65432C3.44261 7.43738 2.91461 6.90737 2.63475 6.50087C2.45099 6.23376 2.33093 5.96011 2.25893 5.70785C2.45005 5.75687 2.67289 5.79181 3.03225 5.82585L4.79666 5.99275L3.39871 4.94989C2.39143 4.19858 1.98777 3.06984 2.28369 1.98473C5.42732 5.10283 9.11835 4.86848 9.48989 4.95091C9.40811 4.19129 9.40597 4.1895 9.38456 4.11718C8.90876 2.50873 9.9515 1.69202 10.4218 1.41556C11.4042 0.838197 12.9636 0.751163 14.0437 1.70239C14.2769 1.90768 14.5924 1.98845 14.8877 1.91831C15.1527 1.85534 15.3701 1.78865 15.5831 1.71608L15.1398 2.92661L15.7057 2.927C15.5989 3.06395 15.4708 3.2279 15.3167 3.4245Z" fill="white"/>
</svg>
